<svg width="439.4263671875px" height="126.8px" xmlns="http://www.w3.org/2000/svg" viewBox="30.28681640625001 11.600000000000001 439.4263671875 126.8" style="background: rgba(0, 0, 0, 0);" preserveAspectRatio="xMidYMid"><defs><linearGradient id="editing-gradient-gradient" x1="0" x2="1" y1="0.5" y2="0.5" gradientUnits="objectBoundingBox"><stop offset="0" stop-color="#c413c4"></stop><stop offset="1" stop-color="#00ffff"></stop></linearGradient></defs><g><g transform="translate(89.67740476131439, 107.54499816894531)"><path d="M8.51-34.24L8.51-34.24L6.98-34.30L6.98-34.30Q5.25-34.30 4.74-33.47L4.74-33.47L4.74-33.47Q4.61-33.28 4.42-33.28L4.42-33.28L4.42-33.28Q3.58-33.28 3.58-36.13L3.58-36.13L3.58-36.13Q3.58-38.98 4.45-39.74L4.45-39.74L4.45-39.74Q5.31-40.51 7.46-40.51L7.46-40.51L7.46-40.51Q9.60-40.51 10.37-39.78L10.37-39.78L10.37-39.78Q11.14-39.04 11.14-37.31L11.14-37.31L11.14-37.31Q11.14-35.58 10.56-34.91L10.56-34.91L10.56-34.91Q9.98-34.24 8.51-34.24ZM3.39-1.92L3.39-1.92L4.10-16.83L4.10-16.83Q4.10-22.14 2.88-24.06L2.88-24.06L2.88-24.06Q2.50-24.70 1.98-25.02L1.98-25.02L1.98-25.02Q1.60-25.15 1.60-25.54L1.60-25.54L1.60-25.54Q1.60-26.69 4.86-27.78L4.86-27.78L4.86-27.78Q8.13-28.86 9.63-28.86L9.63-28.86L9.63-28.86Q11.14-28.86 11.20-28.10L11.20-28.10L11.20-28.10Q11.20-26.82 10.85-20.83L10.85-20.83L10.85-20.83Q10.50-14.85 10.50-8.26L10.50-8.26L10.50-8.26Q10.50-1.66 11.26-0.06L11.26-0.06L11.26-0.06Q11.46 0.26 11.46 0.58L11.46 0.58L11.46 0.58Q11.46 1.41 9.02 1.41L9.02 1.41L9.02 1.41Q6.59 1.41 4.03 0.13L4.03 0.13L4.03 0.13Q3.39-0.19 3.39-1.92ZM29.82 0.38L29.82 0.38L29.82 0.38Q30.72-4.10 30.72-12.19L30.72-12.19L30.72-12.19Q30.72-20.29 30.66-21.76L30.66-21.76L30.66-21.76Q30.59-23.23 29.76-24.13L29.76-24.13L29.76-24.13Q28.93-25.02 28.32-25.15L28.32-25.15L28.32-25.15Q27.71-25.28 26.62-25.28L26.62-25.28L26.62-25.28Q25.54-25.28 24.51-24.29L24.51-24.29L24.51-24.29Q23.49-23.30 23.30-22.27L23.30-22.27L23.04-21.25L23.04-21.25Q22.85-19.33 22.85-12.74L22.85-12.74L22.85-12.74Q22.85-6.14 23.14-4.45L23.14-4.45L23.14-4.45Q23.42-2.75 23.42-2.18L23.42-2.18L23.42-2.18Q23.42-1.60 22.91-1.02L22.91-1.02L22.91-1.02Q20.74 1.28 16.77 1.28L16.77 1.28L16.77 1.28Q15.36 1.28 15.36 0.45L15.36 0.45L15.36 0.45Q16.64-7.23 16.64-19.14L16.64-19.14L16.64-19.14Q16.64-23.55 16.45-25.09L16.45-25.09L16.19-27.14L16.19-27.14Q16.13-27.84 15.94-28.67L15.94-28.67L15.94-28.67Q15.94-29.44 17.92-29.44L17.92-29.44L17.92-29.44Q20.86-29.44 21.82-27.26L21.82-27.26L21.82-27.26Q21.89-27.01 22.08-27.01L22.08-27.01L22.08-27.01Q22.27-27.01 22.98-27.52L22.98-27.52L22.98-27.52Q25.09-29.18 28.67-29.18L28.67-29.18L28.67-29.18Q30.72-29.18 32.70-28.42L32.70-28.42L32.70-28.42Q34.69-27.65 35.46-26.37L35.46-26.37L35.46-26.37Q35.52-26.24 35.65-26.24L35.65-26.24L35.65-26.24Q35.78-26.24 36.03-26.50L36.03-26.50L36.03-26.50Q38.72-29.18 43.01-29.18L43.01-29.18L43.01-29.18Q48.70-29.18 50.82-25.09L50.82-25.09L50.82-25.09Q51.58-23.49 51.58-21.06L51.58-21.06L51.58-21.06Q51.58-18.62 51.20-14.14L51.20-14.14L51.20-14.14Q50.82-9.66 50.82-7.30L50.82-7.30L50.82-7.30Q50.82-4.93 51.30-3.01L51.30-3.01L51.30-3.01Q51.78-1.09 52.26-0.26L52.26-0.26L52.26-0.26Q52.74 0.58 52.74 0.70L52.74 0.70L52.74 0.70Q52.74 1.54 50.94 1.54L50.94 1.54L50.94 1.54Q46.53 1.54 44.80-0.26L44.80-0.26L44.80-0.26Q43.07-2.05 43.07-4.96L43.07-4.96L43.07-4.96Q43.07-7.87 44.26-12.83L44.26-12.83L44.26-12.83Q45.44-17.79 45.44-20.29L45.44-20.29L45.44-20.29Q45.44-25.34 41.34-25.34L41.34-25.34L41.34-25.34Q39.62-25.34 38.59-24.32L38.59-24.32L38.59-24.32Q37.57-23.30 37.38-22.27L37.38-22.27L37.25-21.25L37.25-21.25Q36.99-18.30 36.99-14.14L36.99-14.14L36.99-14.14Q36.99-9.98 37.12-7.65L37.12-7.65L37.12-7.65Q37.25-5.31 37.38-4L37.38-4L37.38-4Q37.50-2.69 37.50-2.43L37.50-2.43L37.50-2.43Q37.50-0.64 35.26 0.32L35.26 0.32L35.26 0.32Q33.02 1.28 30.91 1.28L30.91 1.28L30.91 1.28Q29.82 1.28 29.82 0.38ZM76.22-19.20L76.22-19.20L76.10-11.01L76.10-11.01Q76.10-2.50 77.95-0.77L77.95-0.77L77.95-0.77Q78.21-0.51 78.21-0.19L78.21-0.19L78.21-0.19Q78.21 0.77 74.08 0.77L74.08 0.77L74.08 0.77Q69.95 0.77 69.70-1.66L69.70-1.66L69.70-1.66Q69.63-2.24 69.63-4.03L69.63-4.03L69.89-14.27L69.89-14.27Q69.89-14.72 69.38-14.72L69.38-14.72L69.38-14.72Q66.30-14.72 63.62-12.99L63.62-12.99L63.62-12.99Q60.93-11.26 60.93-8.58L60.93-8.58L60.93-8.58Q60.93-7.17 61.70-6.21L61.70-6.21L61.70-6.21Q62.46-5.25 63.58-5.25L63.58-5.25L63.58-5.25Q64.70-5.25 65.44-5.70L65.44-5.70L65.44-5.70Q66.18-6.14 66.30-6.21L66.30-6.21L66.30-6.21Q67.39-6.08 67.39-3.94L67.39-3.94L67.39-3.94Q67.39-1.79 65.41-0.48L65.41-0.48L65.41-0.48Q63.42 0.83 61.25 0.83L61.25 0.83L61.25 0.83Q59.07 0.83 57.50 0.06L57.50 0.06L57.50 0.06Q55.94-0.70 55.23-1.66L55.23-1.66L55.23-1.66Q54.53-2.62 54.08-3.84L54.08-3.84L54.08-3.84Q53.63-5.31 53.63-6.40L53.63-6.40L53.63-6.40Q53.63-10.88 56.45-13.57L56.45-13.57L56.45-13.57Q59.26-16.26 63.68-17.41L63.68-17.41L63.68-17.41Q69.50-18.56 69.76-19.52L69.76-19.52L69.76-19.52Q69.95-20.22 69.95-21.89L69.95-21.89L69.95-21.89Q69.95-25.28 66.50-25.28L66.50-25.28L66.50-25.28Q65.02-25.28 63.87-24.35L63.87-24.35L63.87-24.35Q62.72-23.42 62.72-22.02L62.72-22.02L63.10-20.48L63.10-20.48Q62.98-19.39 60.80-19.20L60.80-19.20L60.10-19.14L60.10-19.14Q58.18-19.14 57.06-20.10L57.06-20.10L57.06-20.10Q55.94-21.06 55.94-22.66L55.94-22.66L55.94-22.66Q55.94-23.68 56.61-24.93L56.61-24.93L56.61-24.93Q57.28-26.18 58.30-26.94L58.30-26.94L58.30-26.94Q59.33-27.71 61.47-28.32L61.47-28.32L61.47-28.32Q63.62-28.93 65.60-28.93L65.60-28.93L65.60-28.93Q67.58-28.93 68.67-28.80L68.67-28.80L68.67-28.80Q69.76-28.67 71.65-28.19L71.65-28.19L71.65-28.19Q73.54-27.71 74.78-26.37L74.78-26.37L74.78-26.37Q76.03-25.02 76.13-23.52L76.13-23.52L76.13-23.52Q76.22-22.02 76.22-19.20ZM84.35-25.82L84.35-25.82L84.35-25.82Q85.76-27.26 88.06-28.26L88.06-28.26L88.06-28.26Q90.37-29.25 92.48-29.25L92.48-29.25L92.48-29.25Q94.59-29.25 96.77-28.29L96.77-28.29L96.77-28.29Q97.02-28.29 97.15-28.42L97.15-28.42L97.15-28.42Q98.82-30.08 102.02-30.08L102.02-30.08L102.02-30.08Q102.78-30.08 102.78-29.38L102.78-29.38L102.78-29.38Q102.78-29.31 102.66-28.80L102.66-28.80L102.66-28.80Q102.53-28.29 102.34-27.30L102.34-27.30L102.34-27.30Q102.14-26.30 102.02-24.90L102.02-24.90L102.02-24.90Q101.57-21.25 101.54-16.83L101.54-16.83L101.54-16.83Q101.50-12.42 101.50-8L101.50-8L101.70 5.44L101.70 5.44Q101.70 11.90 98.37 16.19L98.37 16.19L98.37 16.19Q97.02 17.92 94.30 19.20L94.30 19.20L94.30 19.20Q91.58 20.48 87.94 20.48L87.94 20.48L87.94 20.48Q87.10 19.97 87.10 19.46L87.10 19.46L87.10 19.46Q87.10 18.94 87.81 18.62L87.81 18.62L87.81 18.62Q91.84 16.77 93.57 9.82L93.57 9.82L93.57 9.82Q95.30 2.88 95.30-11.26L95.30-11.26L95.17-20.22L94.98-24.58L94.98-24.58Q94.98-25.15 93.18-25.41L93.18-25.41L93.18-25.41Q90.88-25.41 89.31-23.90L89.31-23.90L89.31-23.90Q87.74-22.40 87.17-19.97L87.17-19.97L87.17-19.97Q86.14-16.06 86.14-13.22L86.14-13.22L86.14-13.22Q86.14-10.37 87.07-8.19L87.07-8.19L87.07-8.19Q88-6.02 90.30-6.02L90.30-6.02L90.30-6.02Q90.94-6.02 91.49-6.27L91.49-6.27L91.49-6.27Q92.03-6.53 92.22-6.53L92.22-6.53L92.22-6.53Q92.86-6.53 92.86-5.25L92.86-5.25L92.86-5.25Q92.86-3.97 92.67-3.17L92.67-3.17L92.67-3.17Q92.48-2.37 91.90-1.41L91.90-1.41L91.90-1.41Q90.62 0.70 86.91 0.70L86.91 0.70L86.91 0.70Q83.20 0.70 81.60-1.98L81.60-1.98L81.60-1.98Q79.94-4.74 79.68-6.91L79.68-6.91L79.68-6.91Q79.30-10.18 79.30-11.20L79.30-11.20L79.30-11.20Q79.30-12.22 79.33-12.83L79.33-12.83L79.33-12.83Q79.36-13.44 79.65-15.26L79.65-15.26L79.65-15.26Q79.94-17.09 80.42-18.72L80.42-18.72L80.42-18.72Q80.90-20.35 81.92-22.37L81.92-22.37L81.92-22.37Q82.94-24.38 84.35-25.82ZM111.74-16.26L111.74-16.26L111.81-14.66L111.81-14.66Q111.81-14.27 112.32-14.27L112.32-14.27L112.32-14.27Q114.37-14.46 115.90-15.33L115.90-15.33L115.90-15.33Q117.44-16.19 118.21-17.28L118.21-17.28L118.21-17.28Q119.74-19.65 119.87-21.38L119.87-21.38L119.94-22.14L119.94-22.14Q119.94-25.60 117.18-25.60L117.18-25.60L117.18-25.60Q115.14-25.60 113.86-23.81L113.86-23.81L113.86-23.81Q111.74-20.99 111.74-16.26ZM125.70-7.74L125.70-7.74L125.70-7.74Q125.70-5.31 124.70-3.49L124.70-3.49L124.70-3.49Q123.71-1.66 122.46-0.80L122.46-0.80L122.46-0.80Q121.22 0.06 119.55 0.58L119.55 0.58L119.55 0.58Q117.44 1.22 115.52 1.22L115.52 1.22L115.52 1.22Q110.14 1.22 107.58-2.82L107.58-2.82L107.58-2.82Q105.02-6.85 105.02-13.09L105.02-13.09L105.02-13.09Q105.02-19.33 108.19-24.19L108.19-24.19L108.19-24.19Q111.36-29.06 117.70-29.06L117.70-29.06L117.70-29.06Q123.46-29.06 125.50-25.02L125.50-25.02L125.50-25.02Q126.34-23.49 126.34-22.11L126.34-22.11L126.34-22.11Q126.34-20.74 126.21-19.94L126.21-19.94L126.21-19.94Q126.08-19.14 125.31-17.54L125.31-17.54L125.31-17.54Q124.54-15.94 123.26-14.66L123.26-14.66L123.26-14.66Q121.98-13.38 119.23-12.22L119.23-12.22L119.23-12.22Q116.48-11.07 112.77-10.69L112.77-10.69L112.77-10.69Q112.26-10.69 112.26-10.24L112.26-10.24L112.26-10.24Q112.26-9.66 112.67-8.54L112.67-8.54L112.67-8.54Q113.09-7.42 113.60-6.66L113.60-6.66L113.60-6.66Q115.01-4.86 117.76-4.86L117.76-4.86L117.76-4.86Q120.51-4.86 122.43-6.66L122.43-6.66L122.43-6.66Q123.46-7.62 124.10-9.02L124.10-9.02L124.10-9.02Q124.35-9.54 124.77-9.54L124.77-9.54L124.77-9.54Q125.18-9.54 125.44-8.83L125.44-8.83L125.44-8.83Q125.70-8.13 125.70-7.74ZM148.67-8.77L148.67-8.77L148.67-8.77Q148.67-6.02 147.62-3.97L147.62-3.97L147.62-3.97Q146.56-1.92 145.22-0.96L145.22-0.96L145.22-0.96Q143.87 0 142.02 0.58L142.02 0.58L142.02 0.58Q139.58 1.34 137.60 1.34L137.60 1.34L137.60 1.34Q133.44 1.34 130.69-0.29L130.69-0.29L130.69-0.29Q127.94-1.92 127.94-5.50L127.94-5.50L127.94-5.50Q127.94-7.62 129.09-8.96L129.09-8.96L129.09-8.96Q130.88-10.94 133.38-10.94L133.38-10.94L133.38-10.94Q134.14-10.94 134.14-10.24L134.14-10.24L134.14-10.24Q134.14-10.18 133.86-9.25L133.86-9.25L133.86-9.25Q133.57-8.32 133.57-6.91L133.57-6.91L133.57-6.91Q133.57-5.50 134.69-4.42L134.69-4.42L134.69-4.42Q135.81-3.33 137.41-3.33L137.41-3.33L137.41-3.33Q139.01-3.33 139.97-3.87L139.97-3.87L139.97-3.87Q140.93-4.42 141.31-5.25L141.31-5.25L141.31-5.25Q141.89-6.40 141.89-7.42L141.89-7.42L141.89-7.42Q141.89-9.28 140.03-10.62L140.03-10.62L140.03-10.62Q138.18-11.97 135.94-12.74L135.94-12.74L135.94-12.74Q133.70-13.50 131.84-15.30L131.84-15.30L131.84-15.30Q129.98-17.09 129.98-19.78L129.98-19.78L129.98-19.78Q129.98-24.38 132.90-26.69L132.90-26.69L132.90-26.69Q135.81-28.99 140.80-28.99L140.80-28.99L140.80-28.99Q142.98-28.99 145.38-28.38L145.38-28.38L145.38-28.38Q147.78-27.78 147.78-26.34L147.78-26.34L147.78-26.34Q147.78-24.90 147.30-23.68L147.30-23.68L147.30-23.68Q146.82-22.46 146.11-22.46L146.11-22.46L146.11-22.46Q145.73-22.46 145.60-22.75L145.60-22.75L145.60-22.75Q145.47-23.04 145.15-23.42L145.15-23.42L145.15-23.42Q144.83-23.81 143.62-24.42L143.62-24.42L143.62-24.42Q142.40-25.02 141.54-25.02L141.54-25.02L141.54-25.02Q140.67-25.02 140.38-24.99L140.38-24.99L140.38-24.99Q140.10-24.96 139.39-24.80L139.39-24.80L139.39-24.80Q138.69-24.64 138.11-24.32L138.11-24.32L138.11-24.32Q136.64-23.49 136.64-21.89L136.64-21.89L136.64-21.89Q136.64-20.86 137.09-20.38L137.09-20.38L137.09-20.38Q137.54-19.90 137.79-19.65L137.79-19.65L137.79-19.65Q138.05-19.39 138.69-19.04L138.69-19.04L138.69-19.04Q139.33-18.69 139.58-18.56L139.58-18.56L139.58-18.56Q139.84-18.43 140.74-18.02L140.74-18.02L140.74-18.02Q141.63-17.60 141.89-17.47L141.89-17.47L141.89-17.47Q148.67-14.27 148.67-8.77ZM178.50-25.82L178.50-25.82L178.50-25.82Q179.90-27.26 182.21-28.26L182.21-28.26L182.21-28.26Q184.51-29.25 186.62-29.25L186.62-29.25L186.62-29.25Q188.74-29.25 190.91-28.29L190.91-28.29L190.91-28.29Q191.17-28.29 191.30-28.42L191.30-28.42L191.30-28.42Q192.96-30.08 196.16-30.08L196.16-30.08L196.16-30.08Q196.93-30.08 196.93-29.38L196.93-29.38L196.93-29.38Q196.93-29.31 196.80-28.80L196.80-28.80L196.80-28.80Q196.67-28.29 196.48-27.30L196.48-27.30L196.48-27.30Q196.29-26.30 196.16-24.90L196.16-24.90L196.16-24.90Q195.71-21.25 195.68-16.83L195.68-16.83L195.68-16.83Q195.65-12.42 195.65-8L195.65-8L195.84 5.44L195.84 5.44Q195.84 11.90 192.51 16.19L192.51 16.19L192.51 16.19Q191.17 17.92 188.45 19.20L188.45 19.20L188.45 19.20Q185.73 20.48 182.08 20.48L182.08 20.48L182.08 20.48Q181.25 19.97 181.25 19.46L181.25 19.46L181.25 19.46Q181.25 18.94 181.95 18.62L181.95 18.62L181.95 18.62Q185.98 16.77 187.71 9.82L187.71 9.82L187.71 9.82Q189.44 2.88 189.44-11.26L189.44-11.26L189.31-20.22L189.12-24.58L189.12-24.58Q189.12-25.15 187.33-25.41L187.33-25.41L187.33-25.41Q185.02-25.41 183.46-23.90L183.46-23.90L183.46-23.90Q181.89-22.40 181.31-19.97L181.31-19.97L181.31-19.97Q180.29-16.06 180.29-13.22L180.29-13.22L180.29-13.22Q180.29-10.37 181.22-8.19L181.22-8.19L181.22-8.19Q182.14-6.02 184.45-6.02L184.45-6.02L184.45-6.02Q185.09-6.02 185.63-6.27L185.63-6.27L185.63-6.27Q186.18-6.53 186.37-6.53L186.37-6.53L186.37-6.53Q187.01-6.53 187.01-5.25L187.01-5.25L187.01-5.25Q187.01-3.97 186.82-3.17L186.82-3.17L186.82-3.17Q186.62-2.37 186.05-1.41L186.05-1.41L186.05-1.41Q184.77 0.70 181.06 0.70L181.06 0.70L181.06 0.70Q177.34 0.70 175.74-1.98L175.74-1.98L175.74-1.98Q174.08-4.74 173.82-6.91L173.82-6.91L173.82-6.91Q173.44-10.18 173.44-11.20L173.44-11.20L173.44-11.20Q173.44-12.22 173.47-12.83L173.47-12.83L173.47-12.83Q173.50-13.44 173.79-15.26L173.79-15.26L173.79-15.26Q174.08-17.09 174.56-18.72L174.56-18.72L174.56-18.72Q175.04-20.35 176.06-22.37L176.06-22.37L176.06-22.37Q177.09-24.38 178.50-25.82ZM221.18-19.20L221.18-19.20L221.06-11.01L221.06-11.01Q221.06-2.50 222.91-0.77L222.91-0.77L222.91-0.77Q223.17-0.51 223.17-0.19L223.17-0.19L223.17-0.19Q223.17 0.77 219.04 0.77L219.04 0.77L219.04 0.77Q214.91 0.77 214.66-1.66L214.66-1.66L214.66-1.66Q214.59-2.24 214.59-4.03L214.59-4.03L214.85-14.27L214.85-14.27Q214.85-14.72 214.34-14.72L214.34-14.72L214.34-14.72Q211.26-14.72 208.58-12.99L208.58-12.99L208.58-12.99Q205.89-11.26 205.89-8.58L205.89-8.58L205.89-8.58Q205.89-7.17 206.66-6.21L206.66-6.21L206.66-6.21Q207.42-5.25 208.54-5.25L208.54-5.25L208.54-5.25Q209.66-5.25 210.40-5.70L210.40-5.70L210.40-5.70Q211.14-6.14 211.26-6.21L211.26-6.21L211.26-6.21Q212.35-6.08 212.35-3.94L212.35-3.94L212.35-3.94Q212.35-1.79 210.37-0.48L210.37-0.48L210.37-0.48Q208.38 0.83 206.21 0.83L206.21 0.83L206.21 0.83Q204.03 0.83 202.46 0.06L202.46 0.06L202.46 0.06Q200.90-0.70 200.19-1.66L200.19-1.66L200.19-1.66Q199.49-2.62 199.04-3.84L199.04-3.84L199.04-3.84Q198.59-5.31 198.59-6.40L198.59-6.40L198.59-6.40Q198.59-10.88 201.41-13.57L201.41-13.57L201.41-13.57Q204.22-16.26 208.64-17.41L208.64-17.41L208.64-17.41Q214.46-18.56 214.72-19.52L214.72-19.52L214.72-19.52Q214.91-20.22 214.91-21.89L214.91-21.89L214.91-21.89Q214.91-25.28 211.46-25.28L211.46-25.28L211.46-25.28Q209.98-25.28 208.83-24.35L208.83-24.35L208.83-24.35Q207.68-23.42 207.68-22.02L207.68-22.02L208.06-20.48L208.06-20.48Q207.94-19.39 205.76-19.20L205.76-19.20L205.06-19.14L205.06-19.14Q203.14-19.14 202.02-20.10L202.02-20.10L202.02-20.10Q200.90-21.06 200.90-22.66L200.90-22.66L200.90-22.66Q200.90-23.68 201.57-24.93L201.57-24.93L201.57-24.93Q202.24-26.18 203.26-26.94L203.26-26.94L203.26-26.94Q204.29-27.71 206.43-28.32L206.43-28.32L206.43-28.32Q208.58-28.93 210.56-28.93L210.56-28.93L210.56-28.93Q212.54-28.93 213.63-28.80L213.63-28.80L213.63-28.80Q214.72-28.67 216.61-28.19L216.61-28.19L216.61-28.19Q218.50-27.71 219.74-26.37L219.74-26.37L219.74-26.37Q220.99-25.02 221.09-23.52L221.09-23.52L221.09-23.52Q221.18-22.02 221.18-19.20ZM233.09-36.61L233.09-36.61L232.70-13.12L232.70-13.12Q232.70-2.11 233.41 0.06L233.41 0.06L233.41 0.06Q233.60 0.45 233.60 0.83L233.60 0.83L233.60 0.83Q233.60 1.60 231.74 1.60L231.74 1.60L231.74 1.60Q229.89 1.60 227.62 0.67L227.62 0.67L227.62 0.67Q225.34-0.26 225.34-1.73L225.34-1.73L225.34-1.73Q226.62-10.69 226.62-25.66L226.62-25.66L226.37-35.46L226.37-35.46Q226.24-37.25 225.63-38.53L225.63-38.53L225.63-38.53Q225.02-39.81 224.45-40.19L224.45-40.19L223.94-40.51L223.94-40.51Q223.49-40.77 223.49-41.09L223.49-41.09L223.49-41.09Q223.49-41.98 226.27-43.30L226.27-43.30L226.27-43.30Q229.06-44.61 231.68-44.61L231.68-44.61L231.68-44.61Q232.70-44.61 232.83-43.90L232.83-43.90L232.83-43.90Q233.09-42.24 233.09-36.61ZM246.08-36.61L246.08-36.61L245.70-13.12L245.70-13.12Q245.70-2.11 246.40 0.06L246.40 0.06L246.40 0.06Q246.59 0.45 246.59 0.83L246.59 0.83L246.59 0.83Q246.59 1.60 244.74 1.60L244.74 1.60L244.74 1.60Q242.88 1.60 240.61 0.67L240.61 0.67L240.61 0.67Q238.34-0.26 238.34-1.73L238.34-1.73L238.34-1.73Q239.62-10.69 239.62-25.66L239.62-25.66L239.36-35.46L239.36-35.46Q239.23-37.25 238.62-38.53L238.62-38.53L238.62-38.53Q238.02-39.81 237.44-40.19L237.44-40.19L236.93-40.51L236.93-40.51Q236.48-40.77 236.48-41.09L236.48-41.09L236.48-41.09Q236.48-41.98 239.26-43.30L239.26-43.30L239.26-43.30Q242.05-44.61 244.67-44.61L244.67-44.61L244.67-44.61Q245.70-44.61 245.82-43.90L245.82-43.90L245.82-43.90Q246.08-42.24 246.08-36.61ZM256.51-16.26L256.51-16.26L256.58-14.66L256.58-14.66Q256.58-14.27 257.09-14.27L257.09-14.27L257.09-14.27Q259.14-14.46 260.67-15.33L260.67-15.33L260.67-15.33Q262.21-16.19 262.98-17.28L262.98-17.28L262.98-17.28Q264.51-19.65 264.64-21.38L264.64-21.38L264.70-22.14L264.70-22.14Q264.70-25.60 261.95-25.60L261.95-25.60L261.95-25.60Q259.90-25.60 258.62-23.81L258.62-23.81L258.62-23.81Q256.51-20.99 256.51-16.26ZM270.46-7.74L270.46-7.74L270.46-7.74Q270.46-5.31 269.47-3.49L269.47-3.49L269.47-3.49Q268.48-1.66 267.23-0.80L267.23-0.80L267.23-0.80Q265.98 0.06 264.32 0.58L264.32 0.58L264.32 0.58Q262.21 1.22 260.29 1.22L260.29 1.22L260.29 1.22Q254.91 1.22 252.35-2.82L252.35-2.82L252.35-2.82Q249.79-6.85 249.79-13.09L249.79-13.09L249.79-13.09Q249.79-19.33 252.96-24.19L252.96-24.19L252.96-24.19Q256.13-29.06 262.46-29.06L262.46-29.06L262.46-29.06Q268.22-29.06 270.27-25.02L270.27-25.02L270.27-25.02Q271.10-23.49 271.10-22.11L271.10-22.11L271.10-22.11Q271.10-20.74 270.98-19.94L270.98-19.94L270.98-19.94Q270.85-19.14 270.08-17.54L270.08-17.54L270.08-17.54Q269.31-15.94 268.03-14.66L268.03-14.66L268.03-14.66Q266.75-13.38 264-12.22L264-12.22L264-12.22Q261.25-11.07 257.54-10.69L257.54-10.69L257.54-10.69Q257.02-10.69 257.02-10.24L257.02-10.24L257.02-10.24Q257.02-9.66 257.44-8.54L257.44-8.54L257.44-8.54Q257.86-7.42 258.37-6.66L258.37-6.66L258.37-6.66Q259.78-4.86 262.53-4.86L262.53-4.86L262.53-4.86Q265.28-4.86 267.20-6.66L267.20-6.66L267.20-6.66Q268.22-7.62 268.86-9.02L268.86-9.02L268.86-9.02Q269.12-9.54 269.54-9.54L269.54-9.54L269.54-9.54Q269.95-9.54 270.21-8.83L270.21-8.83L270.21-8.83Q270.46-8.13 270.46-7.74ZM293.18-22.02L292.86-17.15L293.12-14.91L293.12-14.91Q293.12-13.70 290.82-13.70L290.82-13.70L290.82-13.70Q286.14-13.70 286.14-17.22L286.14-17.22L286.14-17.22Q286.14-18.05 286.59-19.52L286.59-19.52L286.59-19.52Q287.04-20.99 287.04-22.08L287.04-22.08L287.04-22.08Q287.04-23.17 286.40-23.97L286.40-23.97L286.40-23.97Q285.76-24.77 284.54-24.77L284.54-24.77L284.54-24.77Q283.33-24.77 282.46-23.90L282.46-23.90L282.46-23.90Q281.60-23.04 281.41-22.14L281.41-22.14L281.15-21.25L281.15-21.25Q280.77-19.26 280.77-14.62L280.77-14.62L280.77-14.62Q280.77-9.98 280.90-7.33L280.90-7.33L280.90-7.33Q281.02-4.67 281.15-3.68L281.15-3.68L281.15-3.68Q281.28-2.69 281.28-2.50L281.28-2.50L281.28-2.50Q281.28-0.90 279.30 0.10L279.30 0.10L279.30 0.10Q277.31 1.09 275.33 1.09L275.33 1.09L275.33 1.09Q273.34 1.09 273.34 0.26L273.34 0.26L273.66-1.73L273.66-1.73Q274.56-7.30 274.56-16.26L274.56-16.26L274.56-16.26Q274.56-25.22 273.92-28.42L273.92-28.42L273.92-28.42Q273.92-29.18 275.26-29.18L275.26-29.18L275.26-29.18Q278.72-29.18 279.87-26.82L279.87-26.82L279.87-26.82Q279.94-26.56 280.10-26.56L280.10-26.56L280.10-26.56Q280.26-26.56 280.96-27.14L280.96-27.14L280.96-27.14Q283.07-28.86 285.95-28.86L285.95-28.86L285.95-28.86Q287.74-28.86 289.54-28.16L289.54-28.16L289.54-28.16Q293.18-26.69 293.18-22.02L293.18-22.02ZM307.39 17.73L307.39 17.73L307.39 17.73Q307.39 18.50 306.62 18.50L306.62 18.50L306.56 18.50L306.56 18.50Q304.45 18.50 301.79 17.02L301.79 17.02L301.79 17.02Q299.14 15.55 299.14 13.63L299.14 13.63L299.14 13.63Q299.14 11.71 301.57 6.94L301.57 6.94L301.57 6.94Q304 2.18 304 0.58L304 0.58L304 0.58Q304-1.15 302.34-5.63L302.34-5.63L302.34-5.63Q300.22-11.46 298.98-15.10L298.98-15.10L298.98-15.10Q297.73-18.75 296.29-21.54L296.29-21.54L296.29-21.54Q294.85-24.32 294.21-24.83L294.21-24.83L293.57-25.28L293.57-25.28Q292.86-25.66 292.86-26.11L292.86-26.11L292.86-26.11Q292.86-27.01 295.65-27.94L295.65-27.94L295.65-27.94Q298.43-28.86 300.54-28.86L300.54-28.86L300.54-28.86Q301.50-28.86 302.14-27.33L302.14-27.33L302.14-27.33Q303.30-24.32 304.64-19.01L304.64-19.01L304.64-19.01Q307.90-8.13 308.74-8.13L308.74-8.13L308.74-8.13Q309.31-8.13 311.07-12.61L311.07-12.61L311.07-12.61Q312.83-17.09 312.83-19.84L312.83-19.84L312.83-19.84Q312.83-24.64 310.02-25.47L310.02-25.47L310.02-25.47Q309.38-25.60 309.38-26.11L309.38-26.11L309.38-26.11Q309.38-27.26 312.38-28.32L312.38-28.32L312.38-28.32Q315.39-29.38 317.82-29.38L317.82-29.38L317.82-29.38Q319.94-29.38 319.94-26.62L319.94-26.62L319.94-26.62Q319.94-24.51 319.04-21.70L319.04-21.70L319.04-21.70Q318.14-18.88 317.38-17.25L317.38-17.25L317.38-17.25Q316.61-15.62 313.57-9.70L313.57-9.70L313.57-9.70Q310.53-3.78 308.54 0.70L308.54 0.70L308.54 0.70Q306.37 6.08 306.37 11.65L306.37 11.65L306.37 11.65Q306.37 14.59 306.88 16.06L306.88 16.06L306.88 16.06Q307.39 17.54 307.39 17.73Z" fill="url(#editing-gradient-gradient)"></path></g></g><style>text {
  font-size: 64px;
  font-family: Arial Black;
  dominant-baseline: central;
  text-anchor: middle;
}</style></svg>